<svg width="800" height="300" xmlns="http://www.w3.org/2000/svg">

 <g>
  <title>Layer 1</title>
  <g>
   <g fill="#000000" transform="translate(0 269) scale(0.1 -0.1)">
    <path d="m1213.27692,2502.45825c-320,-69 -580,-307 -668,-611c-23,-77 -23,-83 -23,-718l0,-640l23,-75c106,-335 385,-563 751,-612c155,-20 346,18 481,95l55,32l-140,6c-237,10 -382,65 -510,194c-83,83 -127,154 -165,267c-64,185 -80,337 -80,725c1,434 11,589 44,688c85,252 300,449 566,516c31,8 106,14 173,14c134,0 134,3 10,61c-149,71 -352,93 -517,58z"/>
    <path d="m1894.27692,2340.45825c75,-61 168,-165 214,-242c48,-82 94,-207 108,-300c16,-101 18,-994 2,-1115c-41,-327 -148,-548 -322,-664c-68,-45 -65,-48 24,-25c253,65 455,259 539,516c30,92 31,97 40,403c19,623 -6,872 -112,1090c-86,177 -216,285 -418,349c-119,37 -135,35 -75,-12z"/>
    <path d="m2376.27692,2181.45825c56,-56 88,-100 118,-158c114,-223 139,-438 124,-1040c-8,-311 -12,-370 -29,-436c-35,-131 -101,-246 -197,-345c-57,-58 -53,-61 34,-23c172,75 312,253 361,463c20,82 21,120 23,510c2,373 0,432 -17,521c-48,261 -131,410 -280,507c-53,34 -166,78 -201,78c-7,0 22,-35 64,-77z"/>
    <path d="m3067.27692,1458.45825c0,-324 2,-336 56,-407c14,-18 44,-43 67,-56c41,-21 50,-22 352,-22c303,0 311,0 357,23c25,13 58,38 73,57c52,69 55,94 55,412l0,294l-92,-3l-93,-3l-3,-284c-1,-189 -6,-289 -13,-298c-9,-10 -68,-13 -278,-13c-150,0 -273,4 -281,10c-13,8 -15,55 -18,300l-3,290l-89,0l-90,0l0,-300z"/>
    <path d="m4323.27692,1743.45825c-181,-64 -196,-355 -23,-448c40,-21 54,-22 329,-25l288,-3l6,-26c4,-14 3,-38 -2,-52l-9,-26l-348,-3l-347,-2l0,-96l0,-96l363,4c352,3 363,4 404,25c133,71 166,260 68,389c-50,65 -69,68 -389,74l-290,5l-7,28c-4,16 -4,40 1,53l9,24l348,2l348,3l3,93l3,92l-358,0c-278,-1 -367,-4 -397,-15z"/>
    <path d="m5425.27692,1743.45825c-28,-9 -64,-32 -92,-59c-68,-67 -78,-113 -74,-344c3,-213 11,-239 88,-305c67,-57 101,-62 410,-62l275,0l57,28c61,30 107,80 126,136c19,55 16,422 -4,469c-19,47 -67,97 -119,125c-38,21 -54,22 -330,24c-231,2 -299,-1 -337,-12zm606,-197c13,-18 16,-54 16,-185c0,-150 -2,-165 -20,-183c-19,-19 -33,-20 -278,-20c-217,0 -261,2 -280,16c-21,15 -22,21 -22,189c0,144 3,176 16,189c13,14 53,16 284,16c266,0 269,0 284,-22z"/>
    <path d="m6379.27692,1366.45825l3,-393l90,0l90,0l3,128l3,127l307,0c346,0 360,3 420,76c61,74 80,198 45,299c-20,61 -87,130 -139,144c-25,7 -184,11 -432,11l-392,0l2,-392zm791,152c6,-29 5,-55 -2,-72l-11,-28l-295,0l-295,0l0,75l0,75l298,-2l297,-3l8,-45z"/>
    <path d="m1588.27692,1660.45825c-20,-37 -96,-120 -188,-205c-121,-111 -188,-189 -218,-253c-63,-133 -53,-228 34,-306c110,-99 252,-87 322,27l19,30l0,-43c0,-48 -27,-107 -76,-168l-33,-41l37,-7c20,-3 71,-6 112,-6c41,0 92,3 112,6l37,7l-34,41c-46,56 -75,122 -75,171l0,40l19,-30c67,-109 222,-128 321,-39c54,49 74,106 68,197c-8,119 -42,172 -230,357c-87,85 -171,175 -187,199c-27,40 -30,42 -40,23z"/>
    <path d="m3611.27692,709.45825c-33,-14 -64,-60 -64,-95c0,-43 23,-72 79,-101c56,-28 68,-48 46,-81c-20,-31 -40,-30 -72,2l-26,26l-20,-20c-25,-25 -18,-46 25,-72c87,-53 185,8 175,107c-5,52 -20,71 -73,95c-49,21 -67,40 -58,61c9,24 42,31 69,13c22,-14 24,-14 39,9c15,23 15,25 -8,40c-30,20 -84,27 -112,16z"/>
    <path d="m4778.27692,704.45825c-32,-18 -50,-53 -51,-97c0,-40 30,-74 93,-102c31,-14 37,-22 37,-46c0,-53 -52,-62 -90,-16c-12,14 -15,14 -31,-1c-25,-23 -24,-36 5,-63c54,-51 154,-32 182,34c29,71 8,121 -63,155c-69,32 -83,61 -38,82c19,9 29,8 49,-6c24,-15 26,-15 36,3c16,31 12,41 -25,57c-42,17 -73,17 -104,0z"/>
    <path d="m5227.27692,696.45825c-165,-84 -107,-348 75,-348c140,0 223,170 142,292c-26,38 -98,78 -142,78c-17,0 -51,-10 -75,-22zm119,-62c34,-18 51,-54 51,-112c0,-60 -40,-104 -95,-104c-56,0 -95,44 -95,107c1,55 17,90 51,109c31,17 54,17 88,0z"/>
    <path d="m6272.27692,699.45825c-48,-22 -69,-44 -90,-94c-39,-93 8,-212 98,-246c96,-37 200,19 228,121c24,89 -13,176 -91,216c-53,27 -92,28 -145,3zm114,-65c34,-18 51,-54 51,-112c0,-60 -40,-104 -95,-104c-27,0 -44,8 -66,29c-25,25 -29,37 -29,83c1,92 66,141 139,104z"/>
    <path d="m3067.27692,573.45825c0,-153 9,-184 62,-211c21,-11 47,-15 80,-12c93,9 118,62 118,248l0,111l-37,-3l-38,-3l-3,-130c-2,-102 -6,-133 -19,-147c-21,-24 -48,-23 -73,2c-18,18 -20,33 -20,150l0,130l-35,0l-35,0l0,-135z"/>
    <path d="m3814.27692,701.45825c-4,-3 -7,-82 -7,-175l0,-168l95,0l95,0l0,30c0,30 -1,30 -55,30l-55,0l0,45l0,45l50,0c49,0 50,1 50,30c0,29 -1,30 -50,30l-50,0l0,40l0,40l55,0c54,0 55,0 55,30l0,30l-88,0c-49,0 -92,-3 -95,-7z"/>
    <path d="m4057.27692,533.45825l0,-175l35,0l34,0l3,66l3,66l38,-66c39,-66 39,-66 83,-66l44,0l-45,69l-46,68l30,31c25,24 31,39 31,72c0,23 -5,50 -11,62c-16,29 -70,48 -139,48l-60,0l0,-175zm128,103c19,-19 15,-66 -7,-78c-41,-21 -51,-13 -51,40c0,46 2,50 23,50c13,0 28,-5 35,-12z"/>
    <path d="m4337.27692,533.45825l0,-175l35,0l35,0l0,175l0,175l-35,0l-35,0l0,-175z"/>
    <path d="m4477.27692,533.45825l0,-175l90,0l90,0l0,30c0,30 -1,30 -55,30l-55,0l0,45l0,45l55,0c54,0 55,0 55,30c0,30 -1,30 -55,30l-55,0l0,40l0,40l55,0c54,0 55,0 55,30l0,30l-90,0l-90,0l0,-175z"/>
    <path d="m5527.27692,533.45825l0,-175l35,0l35,0l0,75l0,75l50,0c49,0 50,1 50,30c0,29 -1,30 -50,30l-50,0l0,40l0,40l56,0c54,0 55,0 52,28c-3,27 -3,27 -90,30l-88,3l0,-176z"/>
    <path d="m5917.27692,534.45825l0,-176l35,0l35,0l0,65l0,65l35,0c53,0 91,24 105,65c16,48 6,96 -26,126c-22,20 -38,24 -105,28l-79,3l0,-176zm129,100c7,-8 11,-30 9,-48c-3,-29 -7,-33 -35,-36l-33,-3l0,50c0,47 2,51 24,51c13,0 29,-6 35,-14z"/>
    <path d="m6567.27692,533.45825l0,-175l35,0l35,0l0,77l0,76l53,-74c52,-73 54,-74 101,-77l47,-3l-42,58c-23,32 -55,74 -70,94l-28,36l64,77c36,43 65,80 65,82c0,2 -19,4 -42,4c-42,0 -45,-2 -93,-71l-50,-70l-3,70l-3,71l-34,0l-35,0l0,-175z"/>
    <path d="m6877.27692,533.45825l0,-175l90,0l90,0l0,30c0,30 -1,30 -55,30l-55,0l0,44l0,45l53,3c48,3 52,5 55,31c3,27 2,27 -52,27l-56,0l0,40l0,40l55,0c54,0 55,0 55,30l0,30l-90,0l-90,0l0,-175z"/>
    <path d="m7125.27692,702.45825c-5,-4 -8,-83 -8,-176l0,-168l40,0l40,0l0,63l0,62l35,-55c19,-30 36,-59 37,-63c2,-5 23,-7 46,-5l42,3l-45,67l-45,68l32,29c29,26 33,35 32,76c-1,36 -7,52 -28,73c-22,23 -36,27 -99,30c-39,2 -75,0 -79,-4zm120,-66c7,-7 12,-24 12,-38c0,-30 -17,-50 -42,-50c-15,0 -18,9 -18,50c0,41 3,50 18,50c10,0 23,-5 30,-12z"/>
   </g>
  </g>
 </g>
</svg>