<?xml version="1.0" standalone="no"?>
<!DOCTYPE svg PUBLIC "-//W3C//DTD SVG 20010904//EN"
 "http://www.w3.org/TR/2001/REC-SVG-20010904/DTD/svg10.dtd">
<svg version="1.0" xmlns="http://www.w3.org/2000/svg"
 width="1025.000000pt" height="1025.000000pt" viewBox="0 0 1025.000000 1025.000000"
 preserveAspectRatio="xMidYMid meet">

<g transform="translate(0.000000,1025.000000) scale(0.100000,-0.100000)"
fill="#000000" stroke="none">
<path d="M4290 10114 c-401 -51 -792 -216 -1093 -462 -98 -81 -271 -261 -339
-352 -207 -281 -325 -589 -358 -935 -6 -69 -10 -574 -10 -1365 0 -1057 3
-1272 15 -1360 101 -709 626 -1310 1357 -1554 399 -133 815 -139 1192 -16 126
41 298 121 395 183 l54 35 -264 5 c-178 3 -295 10 -359 21 -784 136 -1210 603
-1365 1497 -65 377 -81 748 -66 1519 18 937 22 997 77 1188 185 642 714 1130
1379 1272 116 25 435 38 547 23 37 -5 65 -6 62 -1 -10 16 -198 121 -284 159
-112 48 -258 93 -386 120 -76 16 -147 21 -309 24 -115 2 -226 1 -245 -1z"/>
<path d="M5613 9739 c382 -271 676 -733 766 -1202 29 -150 32 -205 36 -747 2
-272 6 -670 10 -885 13 -666 -23 -1113 -120 -1490 -132 -514 -379 -880 -731
-1082 -35 -20 -62 -38 -61 -40 2 -1 45 6 96 17 652 133 1188 637 1356 1274 60
227 57 158 81 1531 9 532 -10 869 -67 1185 -151 835 -569 1310 -1298 1476
-162 37 -167 34 -68 -37z"/>
<path d="M6620 9483 c239 -207 368 -380 480 -645 116 -276 181 -592 211 -1033
20 -295 -6 -1922 -34 -2065 -73 -381 -245 -700 -520 -967 -46 -46 -81 -83 -78
-83 4 0 40 11 80 25 476 162 840 606 952 1162 24 121 32 325 45 1208 9 630 -7
888 -76 1236 -130 651 -461 1050 -976 1177 -150 37 -146 38 -84 -15z"/>
<path d="M4915 8099 c-58 -84 -178 -207 -547 -564 -205 -198 -284 -297 -353
-439 -81 -167 -107 -304 -81 -426 23 -109 59 -175 140 -255 120 -119 249 -171
406 -162 55 2 106 12 143 27 77 29 173 118 218 202 l33 63 9 -50 c20 -120 -39
-271 -172 -442 l-80 -102 37 -8 c57 -12 594 -10 615 3 17 10 14 16 -31 70
-135 164 -201 312 -202 451 0 83 9 91 36 32 131 -283 539 -341 773 -109 102
101 142 207 142 380 0 179 -52 328 -172 491 -62 84 -173 198 -521 534 -167
162 -212 213 -321 369 -12 18 -18 13 -72 -65z"/>
<path d="M202 2668 l3 -673 27 -81 c47 -137 148 -259 265 -318 86 -43 126 -46
805 -46 434 0 664 4 700 11 171 36 308 165 375 356 l28 78 3 673 3 672 -216 0
-215 0 0 -650 c0 -454 -3 -656 -11 -673 -6 -14 -22 -30 -36 -36 -17 -8 -207
-11 -628 -11 -421 0 -611 3 -628 11 -14 6 -30 22 -36 36 -8 17 -11 219 -11
673 l0 650 -215 0 -216 0 3 -672z"/>
<path d="M3120 3324 c-254 -68 -417 -375 -355 -669 39 -185 178 -344 346 -396
57 -18 100 -19 669 -19 379 0 619 -4 635 -10 69 -26 74 -213 7 -249 -14 -8
-261 -11 -801 -11 l-781 0 0 -210 0 -210 803 0 c864 0 856 0 967 52 57 27 180
149 210 208 90 177 93 400 8 572 -38 77 -143 185 -213 220 -104 53 -89 52
-764 58 l-634 5 -21 28 c-30 41 -30 153 0 194 l21 28 797 3 796 2 0 210 0 210
-817 -1 c-687 0 -827 -3 -873 -15z"/>
<path d="M5666 3324 c-190 -46 -353 -203 -410 -393 -23 -79 -24 -876 -1 -966
45 -171 183 -316 366 -383 l74 -27 620 -3 c693 -3 701 -3 835 65 128 63 225
172 279 311 l26 67 3 421 c3 461 0 496 -55 612 -39 81 -169 209 -253 250 -129
63 -123 62 -805 61 -499 -1 -631 -3 -679 -15z m1299 -420 c71 -33 70 -27 73
-444 3 -414 2 -418 -61 -464 -28 -21 -37 -21 -625 -21 -552 0 -599 1 -629 18
-63 34 -63 36 -63 454 0 361 1 379 20 411 38 62 26 61 668 62 513 0 588 -2
617 -16z"/>
<path d="M7800 2445 l0 -895 215 0 215 0 0 290 0 289 708 3 707 3 56 23 c155
62 275 208 326 393 27 99 25 292 -6 389 -59 194 -183 332 -339 380 -62 19 -96
20 -973 20 l-909 0 0 -895z m1788 452 c29 -30 46 -125 38 -206 -8 -70 -26
-115 -55 -131 -13 -6 -246 -10 -680 -10 l-661 0 0 185 0 185 668 0 669 0 21
-23z"/>
<path d="M1460 947 c-49 -16 -123 -93 -138 -143 -17 -59 -14 -133 7 -181 24
-51 79 -92 172 -129 83 -33 119 -69 119 -120 0 -126 -144 -154 -218 -42 l-25
39 -49 -48 c-26 -26 -48 -50 -48 -54 0 -17 87 -102 123 -121 57 -29 151 -35
214 -14 117 39 190 179 163 313 -17 81 -61 124 -188 185 -109 52 -130 74 -118
122 18 71 117 91 179 36 l34 -30 36 54 36 54 -22 20 c-58 55 -200 85 -277 59z"/>
<path d="M4180 951 c-107 -35 -169 -119 -170 -230 0 -107 52 -169 190 -225 91
-37 120 -68 120 -127 0 -38 -5 -53 -30 -79 -27 -29 -35 -32 -74 -28 -51 6 -88
31 -113 76 -10 17 -20 32 -23 32 -3 0 -28 -22 -54 -49 l-49 -50 37 -45 c51
-63 112 -97 186 -103 169 -16 284 92 285 267 0 120 -37 168 -181 236 -133 62
-162 108 -105 165 42 42 106 41 155 -2 l35 -30 38 56 c36 56 37 57 18 72 -69
52 -202 85 -265 64z"/>
<path d="M5220 945 c-166 -47 -268 -186 -278 -381 -13 -273 163 -459 422 -442
186 12 324 146 357 345 33 199 -71 399 -239 464 -74 28 -188 34 -262 14z m210
-167 c53 -27 105 -92 121 -151 19 -70 7 -175 -27 -237 -41 -75 -88 -104 -179
-108 -110 -6 -170 31 -217 133 -18 39 -23 67 -22 130 0 83 11 116 60 181 54
72 176 96 264 52z"/>
<path d="M7610 946 c-186 -54 -302 -230 -287 -436 17 -235 173 -390 392 -390
229 0 395 177 395 420 0 174 -84 316 -226 382 -77 36 -198 47 -274 24z m198
-165 c91 -47 135 -126 135 -241 -1 -114 -45 -200 -125 -241 -33 -17 -55 -20
-114 -17 -61 3 -79 8 -115 33 -62 44 -93 110 -98 208 -4 91 14 149 63 205 61
69 176 93 254 53z"/>
<path d="M202 643 c3 -282 5 -301 26 -355 47 -116 153 -175 296 -166 115 8
187 56 235 158 26 55 26 55 29 358 l3 303 -78 -3 -78 -3 -5 -290 c-4 -252 -7
-294 -23 -322 -47 -87 -179 -84 -223 4 -17 34 -19 68 -22 326 l-3 287 -80 0
-80 0 3 -297z"/>
<path d="M1920 540 l0 -400 205 0 205 0 0 70 0 70 -125 0 -125 0 0 105 0 105
120 0 120 0 0 70 0 70 -120 0 -120 0 0 85 0 85 125 0 125 0 0 70 0 70 -205 0
-205 0 0 -400z"/>
<path d="M2480 540 l0 -400 80 0 79 0 3 157 3 157 94 -157 93 -157 94 0 c52 0
94 3 94 8 -1 4 -50 79 -110 167 l-109 160 27 10 c82 30 123 93 130 201 4 64 1
80 -21 126 -49 98 -126 128 -329 128 l-128 0 0 -400z m239 264 c17 -4 42 -18
56 -32 33 -33 36 -116 5 -155 -21 -26 -73 -47 -117 -47 -23 0 -23 2 -23 120 0
134 -3 130 79 114z"/>
<path d="M3127 933 c-4 -3 -7 -183 -7 -400 l0 -393 80 0 80 0 0 400 0 400 -73
0 c-41 0 -77 -3 -80 -7z"/>
<path d="M3447 933 c-4 -3 -7 -183 -7 -400 l0 -393 210 0 210 0 0 70 0 70
-130 0 -130 0 0 105 0 105 125 0 125 0 0 70 0 70 -125 0 -125 0 0 85 0 85 130
0 130 0 0 70 0 70 -203 0 c-112 0 -207 -3 -210 -7z"/>
<path d="M5850 540 l0 -400 80 0 80 0 0 175 0 175 115 0 116 0 -3 68 -3 67
-112 3 -113 3 0 84 0 85 120 0 120 0 0 70 0 70 -200 0 -200 0 0 -400z"/>
<path d="M6750 541 l0 -401 80 0 80 0 0 149 0 149 88 4 c135 7 196 48 228 155
29 95 12 198 -42 261 -53 63 -95 74 -276 80 l-158 4 0 -401z m283 247 c20 -10
47 -66 47 -95 0 -10 -5 -35 -11 -56 -12 -45 -52 -67 -119 -67 l-40 0 0 120 0
121 53 -7 c28 -4 60 -11 70 -16z"/>
<path d="M8240 540 l0 -400 75 0 75 0 2 177 3 178 125 -177 125 -177 104 -1
103 0 -24 33 c-158 209 -288 387 -288 396 0 6 66 91 146 189 l147 177 -88 3
c-49 2 -93 1 -100 -1 -6 -3 -65 -78 -130 -168 l-120 -164 -3 168 -2 167 -75 0
-75 0 0 -400z"/>
<path d="M8940 540 l0 -400 210 0 211 0 -3 67 -3 68 -127 3 -128 3 0 104 0
105 125 0 126 0 -3 68 -3 67 -122 3 -123 3 0 84 0 85 130 0 131 0 -3 68 -3 67
-207 3 -208 2 0 -400z"/>
<path d="M9510 541 l0 -401 80 0 80 0 0 158 0 157 93 -155 93 -155 97 -3 98
-3 -111 167 c-61 91 -110 167 -108 168 2 1 18 8 36 16 104 41 152 213 92 329
-47 92 -100 114 -297 119 l-153 4 0 -401z m277 243 c43 -28 56 -100 28 -154
-19 -36 -36 -46 -97 -55 l-48 -7 0 122 0 123 47 -7 c26 -3 57 -13 70 -22z"/>
</g>
</svg>
